# xmcd CD database file
#
# Track frame offsets:
#	150
#	18914
#	34014
#	51492
#	70079
#	84288
#	97854
#	113284
#	130292
#	151889
#	166743
#	184496
#	201753
#	218057
#
# Disc length: 3086 seconds
#
# Revision: 1
# Processed by: cddbd v1.5.1PL0 Copyright (c) Steve Scherf et al.
# Submitted via: CDex 1.51
#
DISCID=ac0c0c0e
DTITLE=Billy Jones - Tha' Blues
DYEAR=2005
DGENRE=Blues
TTITLE0=Come Back Tonight
TTITLE1=I Like It Like That
TTITLE2=Deal Wit' Da' Devil
TTITLE3=Da' Cemetery Blues
TTITLE4=At Da' Crossroads
TTITLE5=Ain't No Secret
TTITLE6=Ain't Good Lookin'
TTITLE7=Revolution Blues
TTITLE8=Barnyard Blues
TTITLE9=Breakin' Away
TTITLE10=Make Love Tonight
TTITLE11=Ain't That A Shame
TTITLE12=Reconsider Baby
TTITLE13=Da' Love Doctor
EXTD=YEAR: 2005
EXTT0=
EXTT1=
EXTT2=
EXTT3=
EXTT4=
EXTT5=
EXTT6=
EXTT7=
EXTT8=
EXTT9=
EXTT10=
EXTT11=
EXTT12=
EXTT13=
PLAYORDER=
